# xmcd CD database file
#
# Track frame offsets:
#	150
#	18175
#	38970
#	56945
#
# Disc length: 1033 seconds
#
# Revision: 0
# Processed by: cddbd v1.5PL3 Copyright (c) Steve Scherf et al.
# Submitted via: CDex 1.51
#
DISCID=2e040704
DTITLE=JAM Project featuring 水木一郎＆影山ヒロノブ - STORM
DYEAR=2000
DGENRE=Anime
TTITLE0=STORM
TTITLE1=RISING
TTITLE2=STORM (Off Vocal Version)
TTITLE3=RISING (Off Vocal Version)
EXTD=YEAR: 2000
EXTT0=
EXTT1=
EXTT2=
EXTT3=
PLAYORDER=
